<svg width="25" height="24" viewBox="0 0 25 24" fill="none" xmlns="http://www.w3.org/2000/svg">
<path d="M12.25 2.2467C9.87548 2.2468 7.57846 3.09182 5.76997 4.63055C3.96147 6.16929 2.7595 8.30133 2.37913 10.6452C1.99877 12.989 2.46482 15.3918 3.6939 17.4235C4.92298 19.4551 6.83489 20.9832 9.08752 21.7342C9.58752 21.8217 9.77502 21.5217 9.77502 21.2592C9.77502 21.0217 9.76251 20.2342 9.76251 19.3967C7.25 19.8592 6.6 18.7842 6.4 18.2217C6.17808 17.6747 5.82628 17.1899 5.375 16.8092C5.025 16.6217 4.525 16.1592 5.36249 16.1467C5.68228 16.1814 5.98899 16.2927 6.25663 16.4711C6.52428 16.6495 6.74497 16.8899 6.9 17.1717C7.03677 17.4174 7.22068 17.6337 7.44119 17.8082C7.6617 17.9827 7.91448 18.112 8.18503 18.1886C8.45559 18.2652 8.73861 18.2877 9.01788 18.2548C9.29715 18.2219 9.56717 18.1342 9.81248 17.9967C9.85577 17.4883 10.0823 17.013 10.45 16.6592C8.225 16.4092 5.9 15.5467 5.9 11.7217C5.88595 10.7279 6.25269 9.76631 6.925 9.03423C6.61928 8.17045 6.65505 7.22252 7.025 6.38423C7.025 6.38423 7.86247 6.12172 9.775 7.40923C11.4113 6.95921 13.1387 6.95921 14.775 7.40923C16.6875 6.10923 17.525 6.38423 17.525 6.38423C17.895 7.22251 17.9308 8.17046 17.625 9.03423C18.2993 9.76506 18.6664 10.7275 18.65 11.7217C18.65 15.5592 16.3125 16.4092 14.0875 16.6592C14.3262 16.9011 14.51 17.1915 14.6264 17.5107C14.7429 17.83 14.7893 18.1705 14.7625 18.5092C14.7625 19.8468 14.75 20.9217 14.75 21.2592C14.75 21.5217 14.9375 21.8342 15.4375 21.7342C17.6862 20.9771 19.5926 19.4455 20.8164 17.4128C22.0403 15.38 22.5019 12.9785 22.1189 10.6369C21.7359 8.29535 20.5332 6.16608 18.7255 4.62922C16.9178 3.09235 14.6227 2.24794 12.25 2.2467Z" fill="#171F26"/>
</svg>
