<svg width="25" height="24" viewBox="0 0 25 24" fill="none" xmlns="http://www.w3.org/2000/svg">
<path d="M12.25 2.24658C9.87548 2.24668 7.57846 3.0917 5.76997 4.63043C3.96147 6.16916 2.7595 8.3012 2.37913 10.6451C1.99877 12.9889 2.46482 15.3917 3.6939 17.4233C4.92298 19.455 6.83489 20.9831 9.08752 21.7341C9.58752 21.8216 9.77502 21.5216 9.77502 21.2591C9.77502 21.0216 9.76251 20.2341 9.76251 19.3966C7.25 19.8591 6.6 18.7841 6.4 18.2216C6.17808 17.6745 5.82628 17.1897 5.375 16.8091C5.025 16.6216 4.525 16.1591 5.36249 16.1466C5.68228 16.1813 5.98899 16.2926 6.25663 16.471C6.52428 16.6494 6.74497 16.8897 6.9 17.1716C7.03677 17.4173 7.22068 17.6336 7.44119 17.8081C7.6617 17.9826 7.91448 18.1118 8.18503 18.1885C8.45559 18.2651 8.73861 18.2876 9.01788 18.2547C9.29715 18.2218 9.56717 18.134 9.81248 17.9966C9.85577 17.4882 10.0823 17.0129 10.45 16.6591C8.225 16.4091 5.9 15.5466 5.9 11.7216C5.88595 10.7278 6.25269 9.76619 6.925 9.03411C6.61928 8.17033 6.65505 7.2224 7.025 6.38411C7.025 6.38411 7.86247 6.1216 9.775 7.40911C11.4113 6.95909 13.1387 6.95909 14.775 7.40911C16.6875 6.10911 17.525 6.38411 17.525 6.38411C17.895 7.22238 17.9308 8.17034 17.625 9.03411C18.2993 9.76494 18.6664 10.7273 18.65 11.7216C18.65 15.5591 16.3125 16.4091 14.0875 16.6591C14.3262 16.901 14.51 17.1914 14.6264 17.5106C14.7429 17.8298 14.7893 18.1704 14.7625 18.5091C14.7625 19.8466 14.75 20.9216 14.75 21.2591C14.75 21.5216 14.9375 21.8341 15.4375 21.7341C17.6862 20.977 19.5926 19.4453 20.8164 17.4126C22.0403 15.3799 22.5019 12.9784 22.1189 10.6368C21.7359 8.29523 20.5332 6.16595 18.7255 4.62909C16.9178 3.09223 14.6227 2.24782 12.25 2.24658Z" fill="#F1F2F4"/>
</svg>
